<svg id="Layer_1" data-name="Layer 1" xmlns="http://www.w3.org/2000/svg" viewBox="0 0 512 512"><defs><style>.cls-1{fill:#898989;}</style></defs><title>arrow-down-other</title><path class="cls-1" d="M256,512C114.84,512,0,397.16,0,256S114.84,0,256,0,512,114.84,512,256,397.16,512,256,512Zm0-500.62C121.11,11.38,11.38,121.12,11.38,256S121.11,500.62,256,500.62,500.62,390.88,500.62,256,390.89,11.38,256,11.38Z"/><path class="cls-1" d="M256,352.71a5.67,5.67,0,0,1-4-1.67l-68.27-68.27a5.69,5.69,0,0,1,8-8L256,339l64.24-64.24a5.69,5.69,0,0,1,8,8L260,351A5.67,5.67,0,0,1,256,352.71Z"/><path class="cls-1" d="M256,352.71a5.69,5.69,0,0,1-5.69-5.69V119.47a5.69,5.69,0,1,1,11.38,0V347A5.69,5.69,0,0,1,256,352.71Z"/></svg>